<?xml version="1.0" encoding="UTF-8" standalone="no"?>
<!-- Created with Inkscape (http://www.inkscape.org/) -->

<svg
   width="800mm"
   height="400mm"
   viewBox="0 0 800 400"
   version="1.1"
   id="svg1"
   inkscape:version="1.3.2 (091e20ef0f, 2023-11-25)"
   sodipodi:docname="sigma.svg"
   xmlns:inkscape="http://www.inkscape.org/namespaces/inkscape"
   xmlns:sodipodi="http://sodipodi.sourceforge.net/DTD/sodipodi-0.dtd"
   xmlns="http://www.w3.org/2000/svg"
   xmlns:svg="http://www.w3.org/2000/svg">
  <sodipodi:namedview
     id="namedview1"
     pagecolor="#ffffff"
     bordercolor="#000000"
     borderopacity="0.25"
     inkscape:showpageshadow="2"
     inkscape:pageopacity="0.0"
     inkscape:pagecheckerboard="0"
     inkscape:deskcolor="#d1d1d1"
     inkscape:document-units="mm"
     inkscape:zoom="0.36569515"
     inkscape:cx="1506.7195"
     inkscape:cy="559.20895"
     inkscape:window-width="1920"
     inkscape:window-height="1017"
     inkscape:window-x="-8"
     inkscape:window-y="-8"
     inkscape:window-maximized="1"
     inkscape:current-layer="svg1" />
  <defs
     id="defs1" />
  <path
     style="fill:#4a43d9;stroke:#0809ff;stroke-width:1;stroke-linejoin:round"
     d="m 144.70158,49.922046 c 0.88086,11.246749 -1.12226,22.782228 0,34.004871 0.89596,8.959593 0.41866,-2.133923 1.44702,5.064556 0.36926,2.58481 0,7.059293 0,9.405602 0,6.511575 0,13.023145 0,19.534715 0,4.58222 0,9.16443 0,13.74665 0,0.72351 0,1.44701 0,2.17052 0,0.24117 -0.24117,0.72351 0,0.72351 0.25949,0 -0.0834,-1.61381 -1.44702,-4.34105 -1.56582,-3.13164 -2.82007,-6.14637 -4.34105,-9.4056 -4.34258,-9.30554 -7.15237,-22.428745 -19.53471,-22.428745 -3.00541,0 -9.18989,-0.658599 -12.29963,0.723508 -1.10192,0.489741 -1.87148,1.531427 -2.89404,2.170527 -0.9146,0.57162 -2.08234,0.73679 -2.89403,1.44701 -4.170085,3.64883 -5.406149,8.14601 -7.235076,13.02315 -3.934243,10.49131 2.040646,-10.61757 -3.61754,10.12911 -0.866007,3.17536 -0.274404,6.26188 -0.723508,9.4056 -0.964068,6.74848 -1.182309,14.0997 -0.723509,20.98173 0.583121,8.7468 4.589159,16.50431 10.129113,23.15225 0.65503,0.78604 1.60296,1.31918 2.17052,2.17053 0.29914,0.44869 0.34219,1.06569 0.72351,1.44701 4.14651,4.14651 14.41798,3.47176 20.25822,5.06456 4.59776,1.25393 12.81669,5.78843 15.91718,10.12911 0.80514,1.12719 2.81706,5.83425 3.61754,7.23507 0.43141,0.75499 1.17204,1.3456 1.44701,2.17053 0.77425,2.32275 0,9.97971 0,12.29964 0,6.04718 -0.22742,10.58983 -3.61754,15.91717 -3.37466,5.30304 -2.24138,3.01804 -5.06455,7.95858 -1.98234,3.4691 -2.86294,6.97319 -6.51158,9.40561 -5.93046,3.95365 -12.37186,5.54383 -18.8112,7.95859 -5.07068,1.9015 -9.70911,5.14923 -13.74665,8.6821 -1.036671,0.90707 -3.909007,3.5524 -4.341047,5.06455 -1.00656,3.52295 0.457155,7.91887 0,11.57613 -0.09459,0.75673 -0.598131,1.41824 -0.723509,2.17051 -0.907058,5.44235 0,11.91852 0,17.36421 0,5.83583 -2.170522,11.48701 -2.170522,17.36418 0,0.80012 -2.094429,5.06454 -1.447017,5.06454 0.01016,0 -2.619055,-3.88276 -2.894031,-4.34104 -0.654055,-1.09008 -4.852083,-7.8322 -5.064556,-8.68209 -0.116986,-0.46794 0,-0.96467 0,-1.44701 -0.482338,-1.44703 -1.008727,-2.88009 -1.447017,-4.34104 -4.632359,-15.44122 -8.596215,-31.56379 -9.405602,-47.75154 0,-1.44701 0,-2.89403 0,-4.34104 0.241168,-0.72351 0.675937,-1.40937 0.723509,-2.17053 0.593328,-9.49326 -0.486661,-7.40708 0,-15.19367 0.121285,-1.94058 0.574381,-3.84942 0.723506,-5.78806 0.471876,-6.13439 0.251039,-15.38194 5.788064,-19.53471 3.235386,-2.42654 5.592194,0.48024 7.958587,2.17052 0.877645,0.62689 2.075141,0.74511 2.894031,1.44702 3.125418,2.67893 5.393637,7.64643 7.958588,10.85262 0.426122,0.53265 1.141957,0.8369 1.447016,1.44701 0.444694,0.88939 0.409062,1.95069 0.723506,2.89403 0.07627,0.2288 0,0.48234 0,0.72351 0.482341,0.48234 1.068639,0.87945 1.447017,1.44702 0.377045,0.56556 -0.734216,2.89403 0.723508,2.89403 1.229729,0 -0.521342,-2.40455 -0.723508,-3.61754 -0.237887,-1.42733 0.204639,-2.90857 0,-4.34105 -0.546521,-3.82564 -2.857376,-7.39072 -4.341048,-10.85261 -0.760219,-1.77385 -0.934217,-4.71679 -1.447014,-6.51158 -1.479076,-5.17677 -4.86328,-9.72656 -7.235079,-14.47016 -1.763524,-3.52704 0.407488,-0.89192 -1.447017,-5.06455 -3.033572,-6.82554 -8.474921,-12.43669 -12.299635,-18.81121 -1.52052,-2.53419 -2.56531,-5.97636 -3.617539,-8.68209 -2.231022,-5.73692 -6.5586,-14.91512 -7.958587,-20.98173 -1.946193,-2.24716 -0.248177,-4.85843 -0.723509,-7.23508 -0.344328,-1.72164 -1.102685,-3.34291 -1.447014,-5.06456 -0.896154,-4.48076 0,-9.86016 0,-14.47015 0,-4.03923 -0.922858,-9.7476 0,-13.74665 1.844289,-7.991919 15.129365,-31.703049 24.599268,-33.281368 4.039007,-0.673166 18.008621,-1.647661 21.705241,-0.723508 1.43155,0.357888 3.57875,2.469517 5.06455,2.894033 1.04196,0.297702 14.08231,1.764546 15.19367,1.447014 3.98071,-1.137345 4.65124,-4.65124 7.23508,-7.235078 0.85266,-0.852662 1.92935,-1.447014 2.89403,-2.170523 1.95602,-1.467019 7.23508,-6.086216 7.23508,-8.682095 0.72351,-2.411693 1.44701,-4.823386 2.17052,-7.235079 z"
     id="path1" />
  <path
     style="fill:#4a43d9;stroke:#0809ff;stroke-width:1;stroke-linejoin:round"
     d="m 119.37881,111.42022 c 32.62692,-0.16428 65.0502,0.72351 97.67356,0.72351 6.75274,0 13.50548,0 20.25822,0 0.44152,0 2.61213,-0.28191 2.89403,0 0.34107,0.34106 0,0.96467 0,1.44701 0,7.32588 1.60423,14.65865 3.61754,21.70524 0.14815,0.51852 0.65663,0.91191 0.72351,1.44701 0.66994,5.35948 0,11.2326 0,16.64069 0,0.2505 0.14633,4.31666 0,4.34104 -5.26527,0.87755 -14.14592,0.17463 -19.53471,-0.7235 -2.84995,-0.47499 -4.95777,-1.44702 -7.95859,-1.44702 -2.71707,0 -7.88729,-0.21387 -7.95859,0 -0.6955,2.08652 -0.25116,16.77184 0,19.53471 0.09,0.99029 0.6137,1.90575 0.72351,2.89404 0.46606,4.19451 0,8.81226 0,13.02314 0,5.96639 0.4249,12.13907 0,18.08769 -0.6216,8.70248 -0.45792,0.25191 -2.17052,7.95859 -1.33066,5.98797 1.46623,15.11681 0,20.98173 -0.31499,1.25996 -1.09023,2.36877 -1.44702,3.61754 -1.31966,4.61882 -2.21212,9.6968 -2.89403,14.47016 -0.782,5.474 -0.72351,1.33068 -0.72351,3.61754 0,2.12149 -0.12146,8.60113 0,8.68209 3.00133,2.00088 6.84429,1.08204 10.12911,1.44703 3.16046,0.35116 6.27032,1.09863 9.40561,1.44701 1.91755,0.21307 3.91631,-0.46794 5.78806,0 0.33088,0.0827 0.39263,0.64079 0.72351,0.7235 1.80876,0.4522 5.5097,0.57513 7.23508,0 2.68212,-0.89403 -0.88192,-0.7235 1.44701,-0.7235 4.09327,0 0.64624,0.22878 6.51157,-1.44701 0.2319,-0.0663 0.66502,-0.23397 0.72351,0 0.84501,3.38003 -0.72351,7.36894 -0.72351,10.8526 0,9.88796 0,19.77589 0,29.66384 0,2.62779 1.66257,9.40559 -2.17052,9.40559 -7.4735,0 5.46213,-0.14189 -5.78806,0.72351 -4.25705,0.32747 -8.73298,0 -13.02314,0 -8.6821,0 -17.3642,0 -26.04629,0 -4.69302,0 -9.09761,0.39145 -13.74665,0.7235 -11.88844,0.84918 -24.28245,0 -36.17539,0 -3.819,0 -0.56964,0.1755 -5.06456,-0.7235 -0.67238,-0.13446 -4.4474,0.61716 -5.06456,0 -0.68213,-0.68213 0.18919,-1.94808 0,-2.89402 -0.78004,-3.90024 -2.11398,-7.6759 -2.89403,-11.57612 -0.45929,-2.29648 0,-5.61277 0,-7.95859 0,-7.47625 0,-14.95251 0,-22.42876 0,-2.17053 0,-4.34104 0,-6.51158 0,-0.7235 -0.68638,-1.94172 0,-2.17051 0.99872,-0.3329 23.65649,-0.5189 26.7698,0 0.14088,0.0236 5.37793,1.54377 5.78806,0.72351 0.43142,-0.86284 -0.15859,-1.9425 0,-2.89404 1.44156,-8.64938 1.44701,-17.21027 1.44701,-26.04628 0,-5.62796 -0.0897,2.61364 0.72351,-7.95859 0.51174,-6.65259 0,-13.58808 0,-20.25822 0,-11.46995 -0.89126,-23.42502 0.72351,-34.72838 0.55307,-3.8715 0.31456,-5.72506 0.72351,-9.4056 0.16278,-1.46506 2.19753,-7.93158 1.44701,-8.6821 -3.71917,-3.71917 -10.16213,-0.011 -14.47015,-1.44701 -1.93592,-0.64531 -1.20869,-1.14591 -3.61754,-1.44702 -1.67515,-0.20939 -3.463,0.53385 -5.06456,0 -1.74244,-0.58081 -3.42177,-1.34913 -5.06455,-2.17052 -0.30506,-0.15253 -0.38907,-0.65662 -0.72351,-0.72351 -9.63128,0 1.43357,0.43142 -4.34105,-0.72351 -2.42461,-0.48492 -5.60454,0.78468 -7.95859,0 -0.51159,-0.17053 -0.91821,-0.61775 -1.44701,-0.7235 -0.70946,-0.1419 -1.48415,0.22879 -2.17053,0 -0.22879,-0.0763 0.2288,-0.64725 0,-0.72351 -1.24288,-0.4143 -9.14869,0.35132 -9.4056,-1.44702 -0.28181,-1.9727 -0.6271,-20.74026 0,-23.87576 0.29605,-1.48023 0.83307,-3.11315 1.44702,-4.34105 0.38587,-0.77174 -0.38587,-2.12229 0,-2.89403 0.17111,-0.34223 1.44701,-1.83437 1.44701,-2.17052 0,-1.22973 -0.48234,-2.4117 -0.7235,-3.61754 z"
     id="path2" />
  <path
     style="fill:#4a43d9;stroke:#0809ff;stroke-width:1;stroke-linejoin:round"
     d="m 317.61998,130.95493 c -0.0767,-4.66243 -3.10665,-6.27728 -5.78807,-9.4056 -2.65446,-3.09687 -4.72446,-6.8183 -7.95859,-9.4056 -1.34898,-1.07919 -4.64577,-2.85601 -5.78805,-3.61754 -4.99872,-3.33247 -9.79308,-7.42881 -15.19367,-10.129115 -3.96576,-1.982875 -8.23754,-3.287387 -12.29964,-5.064554 -3.3469,-1.46426 -8.08139,-3.592176 -11.57613,-4.341048 -1.17908,-0.252661 -2.43114,0.215707 -3.61754,0 -1.50068,-0.272851 -2.83109,-1.231307 -4.34105,-1.447017 -5.71155,-0.815935 -14.08361,-0.267599 -19.53471,0.723509 -2.37626,0.432049 -5.68077,3.315962 -7.23508,5.064556 -0.77845,0.875752 -7.75155,8.991529 -8.68209,10.852619 -1.59021,3.1804 -0.86607,7.80888 -2.17053,10.85262 -6.72957,13.45915 -0.27635,-1.0651 -2.17052,6.51157 -0.4895,1.95799 -2.55387,4.47059 -2.89403,6.51157 -0.1586,0.95155 0.15859,1.94248 0,2.89403 -0.4243,2.54578 -1.90605,5.31384 -2.17053,7.95859 -0.65618,6.56187 0,13.66009 0,20.25822 0,7.26491 -0.46453,14.57698 0.72351,21.70524 0.23789,1.42732 -0.20464,2.90857 0,4.34105 0.44507,3.11545 1.7802,6.28295 2.17052,9.4056 0.14957,1.19653 -0.29246,2.44769 0,3.61754 0.2109,0.84358 1.10449,1.37128 1.44702,2.17052 0.7834,1.82793 0.7331,3.93189 1.44702,5.78806 0.85266,2.21693 2.1955,4.24137 2.89403,6.51157 0.2837,0.92202 -0.25382,1.96335 0,2.89404 0.49567,1.81744 7.3579,14.55981 8.68209,16.64068 0.82907,1.30281 2.09953,2.29337 2.89404,3.61754 0.66819,1.11365 0.76635,2.51146 1.44701,3.61754 2.1746,3.53373 4.64307,6.8891 7.23508,10.12911 2.10517,2.63147 2.65307,2.23107 4.34105,4.34105 0.5432,0.679 0.83215,1.55566 1.44701,2.17052 7.96008,7.96008 32.24815,13.74666 43.41047,13.74666 0.55415,0 13.07074,0.45061 13.74667,0 0.44868,-0.29914 0.30239,-1.11014 0.7235,-1.44703 0.8422,-0.67376 1.99663,-0.84873 2.89404,-1.44701 2.49746,-1.66499 5.97837,-4.20132 7.95859,-6.51157 0.85201,-0.99403 2.56746,-5.36861 2.89401,-6.51157 0.19878,-0.69568 -0.17547,-1.46862 0,-2.17053 0.2109,-0.84358 1.17205,-1.3456 1.44703,-2.17052 0.86823,-2.60476 1.8787,-4.6968 2.89401,-7.23508 0.32296,-0.80736 1.17206,-1.3456 1.44704,-2.17053 1.09365,-3.28101 1.84547,-11.24058 0,-14.47015 -0.59828,-1.04697 -1.55014,-1.86003 -2.17054,-2.89403 -1.00915,-1.68191 -0.94826,-0.94827 -2.89404,-2.89403 -0.17052,-0.17054 0.23397,-0.66502 0,-0.72351 -1.66113,-0.41529 -4.12691,0.55371 -5.78805,0 -4.56194,-1.52065 3.17984,0.0572 -4.34104,-1.44702 -1.3883,-0.27766 -2.96776,0.34333 -4.34105,0 -0.8436,-0.2109 -1.34559,-1.17204 -2.17053,-1.44701 -1.29895,-0.43299 -3.08415,-0.30455 -4.34105,-0.72351 -0.32356,-0.10786 -0.39994,-0.61566 -0.7235,-0.72351 -0.91517,-0.30506 -1.95816,0.23397 -2.89404,0 -3.07311,-0.76828 -6.28301,-2.26951 -9.4056,-2.89403 -2.63315,-0.52663 -5.31648,-0.69213 -7.95858,-1.44702 -1.22669,-0.35048 -3.36656,-0.79736 -4.34105,-1.44702 -0.56756,-0.37837 -0.8369,-1.14195 -1.44703,-1.44701 -0.64712,-0.32356 -1.65891,-0.5116 -2.17051,0 -0.68213,0.68213 0,1.92935 0,2.89403 0,1.90055 0.68531,7.31147 0,8.6821 -0.97585,1.9517 -0.72351,4.17413 -0.72351,6.51157 0,0.88679 -0.52785,3.08968 0,3.61754 1.1532,1.15319 8.52097,-0.35737 10.1291,0 1.26043,0.28009 6.75913,2.81789 7.95859,3.61754 1.55305,1.03535 4.85923,3.20685 5.78808,5.06455 1.55083,3.10169 -1.58573,8.02794 -4.34105,9.4056 -0.16523,0.0826 -8.2981,0.23041 -8.68211,0 -2.90605,-1.74364 -10.25786,-6.34295 -12.29962,-9.4056 -0.45175,-0.67761 -3.35303,-4.99452 -3.61754,-5.78806 -0.2288,-0.68638 0.2687,-1.49876 0,-2.17053 -0.25334,-0.63334 -1.09607,-0.86209 -1.44702,-1.44701 -0.39238,-0.65396 -0.38244,-1.48839 -0.72351,-2.17052 -0.38887,-0.77775 -1.14169,-1.35635 -1.44701,-2.17053 -0.90881,-2.42348 -0.98833,-5.59418 -2.17053,-7.95858 -0.53927,-1.07855 -1.5931,-1.83543 -2.17052,-2.89404 -1.67185,-3.06506 -3.80067,-7.48225 -5.06456,-10.85262 -1.30388,-3.47702 -1.61853,-7.345 -2.89403,-10.85261 -0.36858,-1.01361 -1.15072,-1.85699 -1.44702,-2.89404 -4.20417,-2.6667 -0.67767,-6.32822 -1.44701,-9.4056 -0.0827,-0.33088 -0.64079,-0.39263 -0.72351,-0.72351 -0.4136,-1.65441 -0.35357,-3.39984 -0.72351,-5.06455 -0.11698,-0.52643 -0.66395,-0.91105 -0.7235,-1.44702 -0.3196,-2.87633 0.35896,-5.81041 0,-8.68209 -0.21778,-1.74218 -1.22925,-3.32238 -1.44702,-5.06456 -0.49685,-3.97482 0.74611,-1.86907 -0.72351,-5.78806 -0.3787,-1.00987 -1.10595,-1.87084 -1.44701,-2.89403 -0.43054,-1.29162 0.29631,-3.00766 0,-4.34105 -1.04302,-4.69359 -2.43637,-10.2469 -1.44702,-15.19367 0.38132,-1.90661 1.75041,-3.49207 2.89403,-5.06455 4.67692,-6.43076 8.3025,-6.51157 15.91718,-6.51157 2.53613,0 7.7305,-0.89948 10.12911,0 1.12907,0.4234 1.87147,1.53142 2.89403,2.17052 4.16661,2.60413 5.18549,3.71429 8.68209,6.51157 0.42111,0.33688 1.06569,0.34219 1.44701,0.72351 1.6088,1.6088 2.29513,3.93667 3.61754,5.78806 1.15586,1.6182 3.32057,2.64025 4.34104,4.34105 0.39238,0.65396 0.33116,1.51656 0.72353,2.17052 1.74533,2.90891 5.94278,5.99436 7.95859,8.6821 1.88254,2.51005 4.99047,9.86325 7.95859,10.85262 0.16639,0.0555 3.48443,0.0998 3.61754,0 0.77235,-0.57927 4.89895,-8.74319 5.06455,-9.4056 0.17547,-0.70191 -0.26871,-1.49877 0,-2.17053 0.25334,-0.63334 1.09606,-0.86209 1.447,-1.44701 1.87278,-3.1213 0.0931,-1.09597 0.72351,-3.61754 0.38359,-1.5343 1.40208,-1.74135 2.17053,-2.89404 0.59828,-0.8974 0.68437,-2.13138 1.44701,-2.89403 0.17055,-0.17053 0.55298,0.17053 0.7235,0 0.17055,-0.17053 -0.17052,-0.55297 0,-0.72351 0.17055,-0.17053 0.50782,0.10786 0.72353,0 3.12195,-1.56098 3.61754,-1.41879 3.61754,-5.78806 z"
     id="path3" />
  <path
     style="fill:#4a43d9;stroke:#0809ff;stroke-width:1;stroke-linejoin:round"
     d="m 301.70281,319.06699 c -0.43214,-3.31004 0.19979,-6.26343 0.7235,-9.40559 0.11893,-0.71369 -0.22881,-1.48416 0,-2.17054 0.27496,-0.82492 1.05812,-1.39277 1.44701,-2.17053 1.19134,-2.38266 1.01925,-4.93255 2.17054,-7.23506 1.12365,-2.24735 1.95254,-4.15793 2.89401,-6.51158 0.55335,-1.38338 1.87947,-2.88568 2.17053,-4.34105 0.47297,-2.36487 -0.21836,-4.8333 0,-7.23508 0.33298,-3.66284 3.12362,-5.98289 3.61755,-7.95859 0.89992,-3.59976 0.68381,-7.7602 1.447,-11.57612 0.39002,-1.95012 1.14462,-3.82246 1.44703,-5.78807 0.18336,-1.19182 -0.27117,-2.44257 0,-3.61754 0.95486,-4.13775 3.17061,-8.20317 4.34105,-12.29963 0.26794,-0.93788 -0.40196,-2.81364 0,-3.61754 0.24117,-0.48234 1.20584,-0.24117 1.44701,-0.72351 0.32355,-0.64712 -0.10232,-1.45428 0,-2.17052 0.3797,-2.65801 1.32278,-5.41539 2.17051,-7.95859 0.97258,-2.91772 3.27776,-5.62411 3.61754,-8.68209 0.15981,-1.43817 -0.28377,-2.92214 0,-4.34105 0.21153,-1.0576 1.10596,-1.87084 1.44703,-2.89403 0.38886,-1.16662 0.33462,-2.45092 0.7235,-3.61754 0.65159,-1.95481 1.35882,-3.89412 2.17051,-5.78807 0.34256,-0.79924 1.17205,-1.34559 1.44704,-2.17052 0.22878,-0.68638 -0.11896,-1.45686 0,-2.17052 0.32694,-1.96168 1.09124,-3.83141 1.447,-5.78807 0.34782,-1.913 0.18936,-3.9185 0.7235,-5.78806 0.3568,-1.24876 1.13205,-2.35758 1.44704,-3.61754 0.17547,-0.7019 -0.0898,-1.4526 0,-2.17052 0.45595,-3.64779 1.76461,-7.19938 2.17051,-10.85262 0.2132,-1.91879 0.86624,-10.27184 2.17053,-11.57613 0.17053,-0.17053 -0.0763,0.49472 0,0.72351 0.17053,0.5116 0.51107,0.95135 0.72351,1.44702 0.51159,1.19372 1.03632,2.38544 1.447,3.61754 1.56761,4.70278 0.13161,1.05284 0.72353,5.78806 0.12504,1.00037 1.32197,4.78769 1.44701,5.78806 0.73631,5.89049 -1.46926,-0.34725 1.447,7.23508 2.00846,5.22195 4.52242,10.43266 5.78808,15.91718 1.57128,6.80895 2.84972,13.61376 5.06455,20.25822 0.96901,2.907 2.26306,5.97315 3.61754,8.68209 1.20399,2.40799 3.34344,4.74103 4.34105,7.23508 0.53813,1.34534 0.0769,3.77125 0.7235,5.06456 0.38888,0.77774 1.05815,1.39277 1.44703,2.17052 0.21569,0.43142 -0.34107,1.10595 0,1.44701 1.50368,1.5037 7.75309,-9.22688 8.68209,-10.85261 2.52796,-4.42394 -0.69752,1.36902 0.72351,-2.89403 0.48233,-0.96468 0.96467,-1.92936 1.447,-2.89404 0.48234,-0.24117 1.17946,-0.25529 1.44704,-0.7235 1.7137,-2.99903 2.08912,-7.0723 3.61754,-10.12912 0.0858,-0.1715 3.38119,-4.35558 3.61751,-5.06455 0.22881,-0.68638 -0.22878,-1.48414 0,-2.17053 0.27498,-0.82492 1.0872,-1.37891 1.44704,-2.17052 0.85264,-1.87585 1.18382,-3.97911 2.1705,-5.78806 0.48996,-0.89826 1.60298,-1.31918 2.17054,-2.17052 1.20441,-1.80662 1.88733,-4.49818 2.89404,-6.51158 1.71799,-3.436 3.48094,-7.05297 5.78805,-10.12911 0.40928,-0.5457 1.09606,-0.86209 1.44701,-1.44701 0.42383,-0.70637 0.71495,-2.88547 1.44703,-3.61754 0.17052,-0.17054 0.55298,0.17053 0.7235,0 0.17053,-0.17054 0,-0.96468 0,-0.72351 0,2.65286 -0.29297,5.32195 0,7.95859 0.14343,1.29079 1.26336,2.33185 1.44701,3.61754 0.27286,1.90996 -0.34512,3.88983 0,5.78806 1.06238,5.84298 1.60872,3.62586 2.17054,8.68209 0.21306,1.91756 -0.13748,3.86362 0,5.78807 0.33308,4.66327 0.94429,8.49879 1.447,13.02314 0.44754,4.02794 0.15306,8.30644 0.7235,12.29963 0.0763,0.53385 0.64725,0.91317 0.72353,1.44702 0.82138,5.74973 0.27782,11.57015 0.72351,17.36419 0.0943,1.22611 0.60113,2.39392 0.7235,3.61754 0.31041,3.10416 -0.31041,6.30144 0,9.4056 0.88376,8.83771 0.47093,0.14997 1.44701,7.9586 0.49008,3.92065 0.73239,7.64561 1.44703,11.5761 0.44037,2.42205 0.13028,7.03271 0.7235,9.40562 0.78587,3.14344 1.44701,3.13135 1.44701,5.78806 0,2.32044 -0.57568,5.65581 0,7.95858 0.36994,1.47976 1.14789,2.84538 1.44703,4.34105 0.14187,0.70945 -0.22881,1.48415 0,2.17053 0.73933,2.21798 1.58512,3.44649 2.17051,5.78805 0.24117,0.48234 0.48234,0.9647 0.7235,1.44704 0.24117,0 0.61566,-0.21572 0.72351,0 0.21571,0.4314 -0.21569,1.0156 0,1.447 0.0588,0.11761 2.3695,1.97157 1.44703,2.89404 -0.65405,0.65403 -4.18232,-0.69178 -4.34105,-0.7235 -2.34545,-0.46911 -4.71447,-1.6664 -7.23508,-2.17054 -4.51802,-0.9036 -9.20739,-0.43828 -13.74664,-1.447 -2.02655,-0.45035 -13.17416,-1.94403 -14.47017,0 -1.3939,2.09084 -0.17655,1.37662 -1.447,4.34104 -3.00316,7.00733 -0.29602,-0.23018 -2.17054,2.89402 -1.58184,2.63641 -3.83318,5.91153 -5.06455,8.68211 -1.84531,4.1519 -1.92272,9.37572 -2.89404,13.74664 -0.61827,2.78228 -0.7235,5.08175 -0.7235,7.95859 0,0.7235 0.64712,2.49409 0,2.17053 -3.47234,-1.73617 -4.26529,-8.37909 -5.06455,-11.57613 -1.85324,-7.41296 0.932,5.69005 -2.89404,-5.78807 -0.30506,-0.91517 0.13642,-1.93906 0,-2.89402 -0.46209,-3.23471 -2.7537,-7.24963 -3.61754,-10.12912 -0.20791,-0.693 0.22879,-1.48415 0,-2.17053 -0.8214,-2.46418 -2.26406,-4.71514 -2.89404,-7.23506 -0.17547,-0.70192 0.17547,-1.46863 0,-2.17054 -0.0827,-0.33089 -0.57097,-0.41844 -0.7235,-0.7235 -0.83513,-1.67026 -1.00904,-6.07362 -2.17054,-7.23509 -1.18618,-1.18618 -7.59187,0.72351 -8.68209,0.72351 -3.0036,0 4.30393,-0.0763 -2.89401,0.72353 -1.67788,0.18642 -3.46302,-0.53388 -5.06457,0 -1.79639,0.59878 -3.13746,1.78509 -5.06455,2.17051 -2.49375,0.49874 -5.58943,-0.0662 -7.95859,0.7235 -1.44984,0.48329 -2.76029,1.53823 -4.34104,2.17054 -1.63439,0.65373 -4.08014,-0.42699 -5.78806,0 -4.24195,1.06047 -8.62388,0.7235 -13.02316,0.7235"
     id="path4" />
  <path
     style="fill:#4a43d9;stroke:#0809ff;stroke-width:1;stroke-linejoin:round"
     d="m 434.82826,317.61998 c -0.63294,-3.86519 2.62966,-6.19506 3.61754,-9.40562 1.51103,-4.91087 2.35045,-9.69271 4.34104,-14.47014 4.05075,-9.72182 9.28045,-19.07325 13.02314,-28.94033 3.35433,-8.84322 6.7187,-17.70146 9.40559,-26.76979 0.69871,-2.35812 0.75838,-4.874 1.44704,-7.23508 9.17366,-25.68624 1.29976,-2.59586 4.34104,-13.02314 1.41002,-4.83433 3.07726,-9.59555 4.34105,-14.47016 0.98525,-3.80031 1.21835,-7.76739 2.17053,-11.57612 2.21131,-8.84531 2.33429,-6.93452 3.61752,-15.91718 0.93215,-6.52498 1.74432,-13.0196 2.89404,-19.53471 0.29636,-1.67938 0.55382,-3.3677 0.7235,-5.06456 0.072,-0.71991 -0.22879,-1.48414 0,-2.17052 0.27498,-0.82493 1.1417,-1.35634 1.44703,-2.17052 0.61648,-1.64396 0.89181,-3.39892 1.44701,-5.06456 0.15253,-0.45759 -0.34108,-1.10595 0,-1.44702 0.17052,-0.17053 0.55298,0.17054 0.7235,0 2.15956,-2.15956 0.12951,-0.68555 0.7235,-2.17052 4.06207,-10.15515 -0.0901,2.62132 1.44704,-5.06456 0.2115,-1.05759 1.26971,-1.83016 1.447,-2.89403 0.15859,-0.95155 -0.18917,-1.94808 0,-2.89403 0.0669,-0.33444 0.61566,-0.39994 0.72351,-0.72351 0.30506,-0.91517 -0.23397,-1.95815 0,-2.89403 0.11192,-0.44767 0.80213,-3.61754 1.44703,-3.61754 1.31506,0 2.05941,8.79447 2.17051,9.4056 0.69858,3.8422 1.78525,7.15669 2.89404,10.85262 1.62758,5.42529 1.73707,11.14507 2.89404,16.64069 0.56647,2.69077 1.59435,5.26987 2.17051,7.95858 0.1516,0.70745 -0.21278,1.47901 0,2.17053 0.98787,3.21055 2.95878,6.11173 3.61754,9.4056 1.1508,5.75395 1.66454,11.62654 2.89404,17.36419 4.55385,21.25127 -1.44323,-9.3891 2.89404,9.4056 2.27298,15.91099 -0.95002,-3.80005 2.1705,8.6821 1.50641,6.02561 -0.0646,3.42374 1.44701,7.95859 3.51105,10.5331 -1.10286,-6.05515 3.61754,10.1291 0.9647,3.61754 1.92937,7.23508 2.89404,10.85262 0,0.96468 -0.24209,1.96023 0,2.89403 1.4551,5.61255 3.52266,11.05136 5.06455,16.64069 1.46365,5.30568 0.27808,3.05886 0.72353,7.95858 0.91802,10.09846 0.43312,-1.88746 2.17051,9.40562 0.22003,1.43018 -0.12017,2.89901 0,4.34104 0.44408,5.32892 1.72648,10.58868 2.17053,15.91718 1.10411,13.24935 -0.28297,0.50382 2.17051,8.68209 3.20599,10.68662 -1.20417,-0.71853 1.44704,7.23508 0.38587,1.15763 2.13754,2.95995 1.447,4.34105 -0.61756,1.2351 -1.69246,0.7235 -2.89404,0.7235 -5.69727,0 -11.76424,-0.29467 -17.36418,0.7235 -1.72741,0.31409 -3.35063,1.06614 -5.06454,1.44701 -0.40474,0.09 -4.63714,0.42743 -5.06458,0 -0.77729,-0.77729 0.16764,-5.33823 0,-6.51155 -0.24117,-1.6882 -0.44315,-3.38244 -0.7235,-5.06455 -0.91207,-5.47246 -1.80443,-11.19275 -2.89404,-16.64071 -0.90932,-4.54662 -2.91238,-8.43954 -3.61752,-13.02313 -0.18338,-1.19182 0.19823,-2.42811 0,-3.61754 -0.52898,-3.17381 -1.7358,-6.2175 -2.17053,-9.4056 0,-6.79365 0.26921,-5.8469 -0.72351,-12.29964 -2.04713,-13.30629 0.8621,6.41172 -2.17053,-7.23508 -0.49459,-2.2257 0.23167,-10.62096 -1.44701,-12.29963 -0.17052,-0.17053 -0.49472,0.0763 -0.7235,0 -1.97834,-0.65944 -3.31729,-1.66527 -4.34105,0.72351 -0.64801,1.512 -2.43562,4.67794 -2.89404,6.51157 -0.35578,1.42318 -0.33752,2.92576 -0.7235,4.34105 -0.34173,1.25297 -1.13204,2.35758 -1.44703,3.61754 -0.4136,1.6544 -0.30991,3.41014 -0.7235,5.06455 -0.71134,2.84536 -2.00618,6.74203 -2.89404,9.4056 -0.58082,1.74244 -1.81031,3.26353 -2.17051,5.06457 -0.1419,0.70946 0.22878,1.48413 0,2.17051 -0.27498,0.82492 -1.17205,1.34559 -1.44701,2.17054 -0.22881,0.68638 0.25403,1.49307 0,2.17051 -0.68273,1.82057 -2.02448,3.32546 -2.89404,5.06454 -2.79058,5.58118 -5.97802,11.42252 -7.95858,17.36421 -0.22879,0.68638 0.17547,1.46862 0,2.17051 -0.13081,0.52319 -0.48234,0.9647 -0.72351,1.44703 -0.24117,1.20584 -0.52136,2.40454 -0.72353,3.61755 -0.67545,4.05278 0.47173,4.59284 -2.89401,7.95858 -0.38132,0.38132 -0.24117,1.20584 -0.7235,1.44701 -2.52733,1.26365 -11.98629,-1.24196 -14.47017,0 -4.06837,2.03419 -7.46234,2.17053 -12.29963,2.17053 z"
     id="path5" />
  <path
     style="fill:#f9f9f9;stroke:#0809ff;stroke-width:1;stroke-linejoin:round"
     d="m 482.57978,217.77588 c 3.23448,0.7078 6.88279,-0.64926 10.1291,0 1.73812,0.34762 3.56565,1.67089 5.06457,2.17053 0.45757,0.15252 0.98941,-0.15253 1.44701,0 0.32356,0.10785 0.48233,0.48233 0.7235,0.7235 0.48234,0.24117 0.93543,0.55298 1.44703,0.72351 0.40918,0.1364 1.87992,-0.29059 2.17051,0 0.17053,0.17053 -0.17052,0.55298 0,0.72351 0.17053,0.17053 0.61566,0.21571 0.72351,0 0.74893,-1.49783 -0.28964,-5.93347 -0.72351,-7.23508 -0.77409,-2.32229 -0.67291,0.87527 -1.447,-1.44702 -0.4576,-0.64925 0.22878,-1.48414 0,-2.17052 -0.86707,-2.60121 -2.03724,-4.66469 -2.89404,-7.23508 -1.52035,-4.56102 -2.10802,-9.21809 -3.61754,-13.74665 -0.06,-0.18004 -2.29955,-4.8065 -2.89404,-3.61754 -0.7741,1.54819 0.77409,1.34584 0,2.89403 -0.30504,0.61012 -1.14195,0.8369 -1.44701,1.44702 -0.21571,0.43141 0.11697,0.97908 0,1.44701 -0.66048,2.64195 -2.02793,5.36026 -2.89404,7.95859 -0.36174,1.08526 0.7235,0.72351 0,2.17052 -0.10784,0.21571 -0.55298,-0.17053 -0.7235,0 -0.46609,0.46608 0.22762,2.21117 0,2.89403 -0.52422,1.57264 -1.5045,3.00903 -2.17051,4.34105 -0.21572,0.43142 0.21569,1.0156 0,1.44702 -1.62462,3.24924 0.16986,2.42636 -2.89404,6.51157 z"
     id="path6" />
</svg>
