<?xml version="1.0" encoding="UTF-8" standalone="no"?>
<!-- Created with Inkscape (http://www.inkscape.org/) -->

<svg
   width="210mm"
   height="297mm"
   viewBox="0 0 210 297"
   version="1.1"
   id="svg1"
   inkscape:version="1.3.2 (091e20ef0f, 2023-11-25)"
   sodipodi:docname="drawing.svg"
   xmlns:inkscape="http://www.inkscape.org/namespaces/inkscape"
   xmlns:sodipodi="http://sodipodi.sourceforge.net/DTD/sodipodi-0.dtd"
   xmlns="http://www.w3.org/2000/svg"
   xmlns:svg="http://www.w3.org/2000/svg">
  <sodipodi:namedview
     id="namedview1"
     pagecolor="#ffffff"
     bordercolor="#000000"
     borderopacity="0.25"
     inkscape:showpageshadow="2"
     inkscape:pageopacity="0.0"
     inkscape:pagecheckerboard="0"
     inkscape:deskcolor="#d1d1d1"
     inkscape:document-units="mm"
     inkscape:zoom="0.73139029"
     inkscape:cx="397.18876"
     inkscape:cy="572.19791"
     inkscape:window-width="1920"
     inkscape:window-height="1017"
     inkscape:window-x="-8"
     inkscape:window-y="-8"
     inkscape:window-maximized="1"
     inkscape:current-layer="layer1" />
  <defs
     id="defs1">
    <inkscape:perspective
       sodipodi:type="inkscape:persp3d"
       inkscape:vp_x="250.69549 : 158.26736 : 1"
       inkscape:vp_y="0 : 1000 : 0"
       inkscape:vp_z="230.98173 : 52.635201 : 1"
       inkscape:persp3d-origin="105 : 99 : 1"
       id="perspective1" />
  </defs>
  <g
     inkscape:label="Layer 1"
     inkscape:groupmode="layer"
     id="layer1">
    <path
       style="fill:#000000;stroke-width:0.264583"
       id="path73"
       d="m 52.920018,126.6366 c -1.094719,-0.56833 -2.139376,-1.18249 -3.096572,-1.96637 -0.404511,-0.33127 -1.511752,-1.43916 -1.174525,-1.03961 0.502603,0.5955 0.938644,1.3743 1.67418,1.63162 0.549447,0.19222 -0.689091,-0.93835 -1.033637,-1.40753 -2.296782,-4.45325 -2.749756,-9.48669 -3.104856,-14.40281 -0.278977,-5.52167 0.375433,-11.034474 1.140846,-16.492809 0.328975,-2.225702 0.771493,-4.432496 1.138264,-6.651744 0.01246,-0.07541 0.421706,-2.144213 0.165873,-2.462795 -0.996061,-1.240358 -2.285103,-2.213779 -3.427654,-3.320666 -0.439605,0.03692 -0.88524,0.02935 -1.318815,0.110778 -1.029901,0.193421 -2.469126,0.726213 -3.404529,1.122183 -2.280179,0.96524 -4.351528,2.202249 -6.43637,3.525142 -3.571706,2.560904 -6.520527,5.913998 -8.925078,9.579435 -0.500845,0.763476 -0.94752,1.561145 -1.421281,2.341716 -1.911144,3.50243 -3.728385,7.07616 -4.853487,10.91857 -0.780303,2.66487 -0.937447,3.8226 -1.460012,6.5354 -0.662546,4.29189 -1.060739,8.63859 -0.999345,12.98499 0.03697,2.61706 0.186096,4.09268 0.380197,6.69276 0.377833,4.37188 0.972903,8.75554 2.24035,12.96966 0.879969,2.92581 1.438737,4.06113 2.619393,6.90164 3.421204,7.36952 7.905254,14.17836 12.256123,21.01987 3.689096,5.70663 7.76088,11.19579 12.44274,16.12912 -0.205065,-4.1673 3.631698,5.90241 5.43936,4.34741 0.867995,-0.74667 0.161057,-2.55089 -0.02702,-3.3445 -0.986475,-3.39124 -2.435447,-6.6216 -3.722055,-9.90401 -1.271765,-3.24453 -1.22428,-3.18098 -2.436543,-6.51952 -1.387485,-4.06966 -2.676548,-8.18491 -3.595859,-12.38901 -0.467098,-2.1361 -0.528201,-2.72378 -0.856432,-4.82555 -0.435875,-2.72646 -0.536925,-5.47957 -0.372632,-8.23125 0.170874,-1.58065 0.104577,-1.21043 -2.927051,-2.83839 -0.245766,-0.13197 0.02191,0.55818 0.0089,0.83683 -0.0259,0.55284 -0.238429,2.73883 -0.278749,3.16889 -0.310179,4.14825 -1.083482,8.22888 -2.026383,12.27314 -0.151003,0.52673 -0.242231,1.0744 -0.453009,1.58019 -0.108485,0.26031 -0.212267,0.72174 -0.492268,0.68809 -0.309732,-0.0372 -0.776989,-0.71613 -0.477861,-0.8047 0.5847,-0.17311 1.615598,1.00595 1.780746,0.41895 0.311359,-1.10669 -0.691473,-2.19447 -0.967213,-3.31057 -0.389904,-1.57817 -0.685647,-3.17813 -1.02847,-4.76719 -2.239616,-11.33929 -3.326212,-22.85548 -4.089887,-34.37469 -0.117705,-2.983 -0.439407,-5.97839 -0.229904,-8.96675 0.03033,-0.43259 0.05341,-0.87263 0.173445,-1.28934 0.05127,-0.178 0.147447,-0.49335 0.327318,-0.44909 0.297125,0.0731 0.410308,0.45405 0.615463,0.68107 -0.528235,-0.47247 -1.410964,-2.10449 -1.584703,-1.41741 -0.197244,0.78004 0.987184,1.27128 1.456375,1.92491 2.704182,3.76716 5.033542,7.79302 7.405981,11.77173 2.250525,3.86381 4.448437,7.75905 6.552396,11.70475 1.100455,2.07832 2.170112,3.4248 4.263099,5.00043 0.169619,0.12769 0.419364,-0.18875 0.510939,-0.38029 0.318723,-0.66667 0.270854,-2.08178 0.289195,-2.73001 -0.201443,-5.24605 -0.390266,-10.49395 -0.696844,-15.73519 -0.222395,-3.65266 -0.432874,-7.30807 -0.945813,-10.93341 -0.183164,-1.17586 -0.373912,-2.35048 -0.449612,-3.53889 -0.117809,-1.78983 0.471117,-3.59077 1.668235,-4.94644 0.391475,-0.44332 0.871958,-0.79927 1.307938,-1.19891 0.564251,-0.33197 1.093581,-0.73215 1.692757,-0.99593 3.548004,-1.56195 7.544522,-0.42728 10.824085,1.26837 1.229106,0.63549 2.356792,1.45042 3.535188,2.17563 1.221838,1.14671 2.551142,2.18871 3.665511,3.4401 0.393967,0.44241 0.510762,1.07045 0.807646,1.58308 1.003663,1.73305 2.163583,3.37685 3.092363,5.15115 1.892403,3.61517 3.282473,7.33109 4.410382,11.24562 0.5433,1.88558 0.923292,3.81444 1.384937,5.72165 0.277477,1.9394 0.661789,3.86649 0.832424,5.81819 0.724427,8.28591 -0.42537,16.71772 -2.618615,24.70827 -0.565222,2.05924 -1.28755,4.07211 -1.931324,6.10816 -0.760335,1.93998 -1.444561,3.91153 -2.281002,5.81992 -2.742001,6.25606 -6.354439,12.72775 -11.397813,17.44303 -0.869826,0.81324 -1.859952,1.48741 -2.789928,2.23112 -1.957181,1.26272 -3.992896,2.54124 -6.26605,3.16437 -0.352886,0.0967 -0.725382,0.223 -1.085911,0.16052 -0.170005,-0.0295 -0.457131,-0.51289 -0.322776,-0.40464 0.927719,0.74745 1.807422,1.55261 2.711133,2.32892 0.105949,-0.24061 0.192465,-0.49075 0.317846,-0.72183 0.383069,-0.706 0.937054,-1.44682 1.383102,-2.10216 0.916305,-1.34626 1.804741,-2.71073 2.689547,-4.07776 2.15056,-3.1515 3.551534,-6.69228 4.617453,-10.33266 0.944695,-3.70814 1.286505,-7.52956 1.355281,-11.34498 5.29e-4,-1.46268 -0.119023,-2.91404 -0.431515,-4.34346 -0.1164,-0.53245 -0.326739,-1.40227 -0.593754,-1.90905 -0.126415,-0.23994 -0.314272,-0.44208 -0.471408,-0.66312 -1.153282,-1.06969 -2.225656,-2.23384 -3.459848,-3.20906 -0.235556,-0.18613 -0.576408,-0.17949 -0.874426,-0.21576 -1.835664,-0.22345 -3.359907,0.82253 -4.818563,1.76936 -2.156698,1.83131 -4.082005,3.96899 -5.38644,6.49945 -0.795552,1.54328 -0.917877,2.16949 -1.435857,3.80823 -0.803034,2.88711 -0.53282,5.8251 -0.05664,8.73138 0.272182,1.12111 0.436922,2.31737 0.989211,3.34648 1.05447,0.81715 2.015845,1.7712 3.163409,2.45144 0.144176,0.0855 0.142221,-0.30614 0.180363,-0.46934 0.243592,-1.04231 0.01895,-2.23045 -0.105936,-3.26786 -0.405432,-3.13619 -0.652129,-6.31661 -0.437986,-9.4783 0.07143,-1.0546 0.203729,-2.10419 0.305594,-3.15629 1.200787,-8.84348 3.59225,-17.46917 5.975233,-26.05228 1.338107,-4.8674 2.86512,-9.67978 4.464799,-14.46664 0.09136,-0.27391 0.425349,-1.30693 0.568523,-1.63114 0.06347,-0.14371 0.09671,-0.33148 0.232945,-0.40973 0.07032,-0.0404 0.145613,0.27835 0.08093,0.22943 -0.851183,-0.64376 -1.428779,-1.80416 -2.470369,-2.03659 -0.55675,-0.12424 0.381264,1.07529 0.571896,1.61294 1.709309,5.43908 2.880974,11.02492 4.272571,16.54905 0.178375,0.71587 0.352629,1.43279 0.535126,2.14763 0.135683,0.53147 0.833982,2.1152 0.251176,2.8345 -0.649745,0.80191 -3.706825,-0.47808 -4.30816,-0.67948 -2.697191,-1.19382 -5.507119,-2.20281 -8.100337,-3.61987 -1.380652,-0.94938 -1.126808,-0.81528 2.053822,2.13754 0.06953,0.0645 -0.127941,-0.15234 -0.143176,-0.24598 -0.01947,-0.11969 0.0099,-0.2448 0.04441,-0.36106 0.119267,-0.40247 0.338077,-0.71551 0.549582,-1.07445 1.906344,-2.98375 4.198914,-5.68829 6.584725,-8.2938 4.391801,-4.49763 9.484553,-8.25676 14.925374,-11.39048 1.355989,-0.78101 2.755463,-1.48395 4.133193,-2.22593 1.59842,-0.67689 3.163763,-1.43792 4.795258,-2.03067 5.884299,-2.13787 12.871458,-3.8434 18.955134,-1.37452 1.25115,0.50774 2.31959,1.38285 3.47939,2.07427 0.009,0.12794 -0.0285,0.26869 0.0281,0.38381 0.66307,1.34864 1.53191,2.59624 2.1175,3.98028 1.91274,4.52071 2.81253,9.83334 2.8742,14.72037 0.022,1.74027 -0.17061,3.47664 -0.25592,5.21496 -0.7064,4.1808 -0.87453,6.61732 -2.55057,10.59157 -1.60389,3.80314 -3.60772,6.7226 -6.48558,9.67541 -3.36665,3.45436 -4.975332,4.14885 -8.968879,6.66706 -4.037343,2.08614 -8.323455,3.93955 -12.905025,4.31713 -1.282729,0.10571 -1.763922,0.0328 -2.97306,-0.0513 -0.930925,-0.0862 -1.849215,-0.28157 -2.650606,-0.79032 -0.322207,-0.20455 -1.17621,-0.96748 -0.912416,-0.69168 2.84338,2.97288 1.936893,1.80354 1.028317,0.37552 -0.229127,-0.65241 -0.526468,-1.28473 -0.68738,-1.95722 -1.068927,-4.46736 -0.38086,-9.31687 1.183519,-13.58245 0.442872,-1.20757 1.058788,-2.34444 1.588179,-3.51667 1.726528,-2.76553 1.819929,-3.20361 3.939887,-5.54618 1.032454,-1.14087 2.132857,-2.44392 3.784301,-2.68632 1.688989,-0.24791 2.209985,0.63401 3.397454,1.60042 -0.420807,-0.21256 -1.25321,-1.10902 -1.262425,-0.63767 -0.01834,0.93821 0.866743,1.66733 1.225338,2.53449 0.996336,2.40937 1.725065,5.07147 1.548707,7.70506 -0.04647,0.69385 -0.250881,1.368 -0.376322,2.052 -0.229201,0.55718 -0.407022,1.13838 -0.687602,1.67154 -0.749364,1.42396 -2.022674,2.77033 -3.478657,3.48807 -0.246131,0.12134 -0.51258,0.19614 -0.768871,0.29421 -2.651639,0.38978 -5.352249,-0.11534 -7.980479,-0.48753 -1.505149,-0.16976 -3.493847,-0.4919 -4.745905,0.65231 -0.171456,0.15668 -0.291291,0.36185 -0.436936,0.54278 -0.685334,1.14132 -0.705612,2.45641 -0.732128,3.74688 0.05032,1.21769 0.543761,2.35814 1.391216,3.24457 3.593422,3.75872 2.413002,2.85688 5.103606,4.60407 2.631395,1.39991 5.4947,2.57484 8.485203,2.91207 2.352196,0.26526 2.946106,0.0522 5.289658,-0.23327 0.893562,-0.25258 1.811031,-0.43225 2.680685,-0.75775 6.137811,-2.29733 10.704591,-7.47584 15.020931,-12.16021 5.78351,-6.6998 11.57892,-13.38469 17.60075,-19.87215 1.20717,-0.45958 1.62892,-2.30929 2.87305,-2.79894 0.22233,-0.0875 0.82863,0.47618 0.62102,0.35793 -0.81045,-0.4616 -1.57418,-1.75986 -2.42952,-1.38799 -0.73853,0.32107 0.0879,1.60992 0.0673,2.41495 -0.0271,1.06227 -0.14011,2.12061 -0.21017,3.18091 -0.13502,1.21721 -0.25668,2.43597 -0.40508,3.65162 -1.63161,13.3659 0.66516,-6.25357 -0.98377,7.71375 -0.48612,4.11768 -0.89957,8.23948 -1.27912,12.36812 -0.24401,3.22543 -0.55918,6.44869 -0.65777,9.68351 -0.0298,0.97589 -0.0649,2.48993 0.10244,3.51108 0.0565,0.34505 0.1926,0.67225 0.2889,1.00838 1.07693,1.11093 2.02542,2.36271 3.23078,3.33279 0.22411,0.18036 0.58365,0.0333 0.86213,-0.0388 0.58536,-0.15164 1.14665,-0.38816 1.70277,-0.6256 3.52539,-1.50523 6.62949,-3.73989 9.79553,-5.86546 7.75525,-5.48265 15.27128,-11.29137 22.8267,-17.04322 2.14206,-1.62417 4.28376,-3.24926 6.397,-4.91093 1.03347,-0.81264 2.02443,-1.64518 3.13341,-2.35145 0.13776,0.0191 0.27552,0.0383 0.41328,0.0574 -0.89472,-0.71785 -1.58308,-1.83192 -2.68416,-2.15354 -0.42393,-0.12382 -0.0964,0.88139 -0.20985,1.30822 -0.20449,0.76953 -0.4654,1.52386 -0.74123,2.27079 -0.64721,1.7526 -1.86231,4.51591 -2.57727,6.18167 -3.19601,7.46898 -6.21366,15.026 -8.81104,22.72554 -1.21109,4.01258 -2.3538,8.10637 -2.57565,12.31536 -0.10805,2.04995 0.008,2.82022 0.15632,4.80202 0.2663,2.64472 1.06406,5.19772 1.37559,7.83331 0.0343,1.18606 0.0285,2.07492 -1.02238,2.78026 -1.33244,0.51244 -2.74287,0.0125 -3.97348,-0.56676 -0.59834,-0.28167 -1.19417,-0.5772 -1.74749,-0.9394 -0.6897,-0.45149 -1.31361,-0.99626 -1.97042,-1.49439 -0.74694,-0.7021 -1.51361,-1.3838 -2.24082,-2.10632 -0.11492,-0.11417 0.50099,0.40298 0.39941,0.27681 -0.70968,-0.88152 -1.50316,-1.69245 -2.23444,-2.55614 -1.70837,-2.01769 -3.29736,-4.12163 -4.87342,-6.24232 -1.57606,-2.23837 -3.34352,-4.01422 -5.51316,-5.79059 -0.37634,-0.30812 -1.33117,-0.37514 -1.76835,-0.23229 -0.37659,0.12305 -0.69167,0.38655 -1.0375,0.57982 -2.43157,1.92279 -4.10687,4.5903 -5.80882,7.13507 -5.19213,7.76327 1.16202,-1.64162 -4.51797,6.74102 -3.87913,5.3918 -7.69147,10.85956 -11.96696,15.95005 0.87603,2.02312 -1.83431,-0.0309 -1.41797,0.2029 0.7388,0.41482 1.50402,1.82605 2.17731,1.31167 0.6948,-0.53081 -0.39332,-1.70528 -0.53214,-2.56855 -0.40192,-2.49949 -0.48544,-4.41897 -0.6775,-6.97517 -0.37635,-8.39649 -0.52626,-16.80241 -0.67984,-25.20565 -0.0467,-0.9228 -0.0503,-3.32791 -0.5063,-4.29605 -0.33289,-0.70669 -0.85151,-1.32305 -1.39954,-1.87973 -1.51591,-1.53983 -3.09397,-3.02595 -4.77116,-4.38833 -0.88055,-0.71527 -4.243523,-2.49531 -5.234784,-3.03711 -0.841873,-0.44213 -1.678067,-0.89525 -2.525615,-1.3264 -2.366237,-1.20372 -1.920954,-0.93178 -4.152921,-1.97106 -1.054227,-0.49088 -2.08765,-0.96077 -3.037782,-1.6304 -0.09244,-0.11079 -0.184883,-0.22158 -0.277325,-0.33236 0,0 2.345536,3.22678 2.345536,3.22678 v 0 c 0.112239,0.093 0.224478,0.18591 0.336719,0.27886 0.982893,0.60686 2.017631,1.08041 3.065974,1.56667 2.014386,0.93434 2.016527,0.89173 4.123869,1.96931 0.844662,0.43192 1.678208,0.88523 2.517312,1.32784 0.875127,0.48578 1.765367,0.94527 2.625387,1.45732 0.86923,0.51754 1.58551,1.35846 2.56001,1.63004 0.43167,0.1203 -1.09061,-1.40114 -0.7395,-1.12269 2.19216,1.73855 1.93109,3.45404 2.08136,5.98519 0.18929,8.41173 0.35142,16.82544 0.68079,25.23289 0.19571,2.83611 0.23685,4.25208 0.62579,6.99198 0.12443,0.87652 0.0269,1.84404 0.46098,2.61562 0.89142,1.58442 2.14191,2.9532 3.4068,4.259 0.1996,0.20605 0.57616,0.22113 0.8499,0.13534 0.36422,-0.11413 0.60999,-0.45894 0.91498,-0.68842 4.24247,-5.13722 8.0566,-10.6187 11.95107,-16.01886 6.35338,-9.32055 -1.25224,1.86198 4.53702,-6.7226 1.67395,-2.48219 3.3186,-5.09738 5.70958,-6.96266 0.75657,-0.37644 0.86076,-0.61202 1.6849,-0.40708 0.27608,0.0687 0.93384,0.58716 0.77912,0.34842 -0.52369,-0.80804 -1.27936,-1.4398 -1.94028,-2.14005 -0.6995,-0.74113 3.12261,3.4782 1.91344,2.3845 4.3122,5.81829 8.95149,11.40727 14.46843,16.1452 0.67549,0.48899 1.31888,1.0257 2.02647,1.46696 1.46403,0.91301 3.65079,1.92209 5.438,1.50229 0.22183,-0.0521 0.42364,-0.16801 0.63546,-0.25202 1.15603,-0.83918 1.31601,-1.70879 1.30504,-3.09714 -0.25753,-2.65023 -1.10651,-5.20076 -1.40821,-7.84708 -0.17107,-1.95623 -0.29826,-2.73486 -0.21207,-4.75994 0.17833,-4.18964 1.31081,-8.26639 2.49982,-12.26143 2.57026,-7.69797 5.57774,-15.24936 8.79044,-22.70014 1.20831,-2.78659 2.52582,-5.56422 3.41383,-8.47674 0.14354,-0.47077 0.58214,-1.0057 0.3433,-1.43603 -2.05364,-3.7001 -1.66379,-3.60161 -3.57893,-3.28129 -1.10363,0.73143 -2.10092,1.5738 -3.13675,2.39841 -2.10084,1.67244 -4.23288,3.3052 -6.36699,4.9348 -7.5268,5.77381 -15.02304,11.59448 -22.78917,17.04634 -2.86386,1.90249 -4.52299,3.11598 -7.4888,4.69767 -0.74729,0.39853 -2.8555,1.37644 -3.88706,1.54645 -0.21637,0.0357 -0.77048,-0.31332 -0.64404,-0.13415 0.62381,0.88396 1.48013,1.57841 2.22019,2.36761 -0.11808,-0.31543 -0.2847,-0.61675 -0.35423,-0.94631 -0.20552,-0.97405 -0.17964,-2.57067 -0.15956,-3.48885 0.0709,-3.23825 0.38208,-6.46514 0.61808,-9.69349 0.37424,-4.12536 0.78698,-8.24301 1.27363,-12.35687 1.01836,-8.60858 -0.0506,0.59133 0.99192,-7.71129 0.15285,-1.21733 0.28323,-2.43737 0.42484,-3.65606 0.003,-0.034 0.47667,-5.19787 0.2573,-5.66501 -0.74455,-1.58542 -1.94405,-2.93516 -3.14823,-4.20712 -0.20829,-0.22001 -0.63358,-0.20808 -0.90581,-0.0751 -0.44623,0.21795 -2.82082,2.7975 -2.87187,2.8512 -5.98585,6.52085 -11.77531,13.21186 -17.57271,19.89995 -4.24818,4.59338 -8.844115,9.77346 -14.898096,11.97484 -0.855766,0.31117 -1.757622,0.47688 -2.636433,0.71532 -2.337006,0.25249 -2.86018,0.44995 -5.198256,0.1487 -2.963116,-0.38178 -5.796063,-1.56793 -8.375141,-3.02402 -1.552229,-1.09903 -2.496463,-1.89114 0.472405,0.92344 0.264877,0.25111 -0.497795,-0.5362 -0.713081,-0.83094 -0.476194,-0.65194 -0.782434,-1.38595 -0.841962,-2.19134 0.01225,-1.20698 -0.02045,-2.45722 0.558053,-3.55495 0.114703,-0.15046 0.204089,-0.32414 0.344107,-0.45137 1.124791,-1.02209 3.193317,-0.61482 4.518062,-0.48021 2.678986,0.36873 5.461688,0.90973 8.147894,0.36529 0.272068,-0.11388 0.554728,-0.20518 0.816202,-0.34164 1.511573,-0.78884 2.835596,-2.18872 3.6365,-3.68038 0.297468,-0.55402 0.491434,-1.15767 0.737153,-1.73651 0.141891,-0.70692 0.365053,-1.40228 0.425669,-2.12074 0.226076,-2.67959 -0.482211,-5.36779 -1.452991,-7.83783 -0.346445,-0.88149 -0.622752,-1.81873 -1.179319,-2.58507 -1.268592,-1.74673 -2.832214,-3.25885 -4.248322,-4.88828 -0.600305,-0.40174 -1.120979,-0.96141 -1.800915,-1.20523 -2.43481,-0.87312 -4.3726,1.10336 -5.813076,2.70565 -2.145244,2.38624 -2.240902,2.82396 -3.99759,5.63047 -0.541864,1.18616 -1.16995,2.33661 -1.625594,3.55848 -1.611604,4.32174 -2.320801,9.17947 -1.370688,13.7326 0.143926,0.68971 0.414057,1.34693 0.621086,2.0204 1.56663,2.6894 0.837729,1.68613 4.507614,5.20179 0.443682,0.42504 1.244938,0.81609 1.836607,1.01155 0.710605,0.23476 1.145511,0.24226 1.898359,0.329 1.225381,0.0549 1.721681,0.11549 3.016245,-0.0162 4.609087,-0.46878 8.913347,-2.36065 12.973177,-4.48969 4.030371,-2.56103 5.643541,-3.26666 9.048321,-6.76097 2.90653,-2.98296 4.95513,-5.94294 6.59324,-9.77744 1.70777,-3.99756 1.88934,-6.44949 2.62196,-10.65895 0.0961,-1.75013 0.29952,-3.49766 0.28816,-5.25039 -0.0319,-4.92778 -0.90929,-10.24775 -2.76246,-14.83293 -0.56747,-1.40405 -1.12491,-2.85542 -2.05014,-4.05431 -1.63132,-2.1138 -3.69476,-3.85567 -5.54213,-5.78351 -1.18783,-0.66621 -2.29053,-1.51451 -3.56348,-1.99863 -6.181908,-2.35105 -13.184458,-0.6162 -19.127026,1.55244 -1.642689,0.59947 -3.220371,1.36396 -4.830553,2.04594 -1.38456,0.74574 -2.790653,1.4528 -4.153681,2.2372 -5.474022,3.15021 -10.603015,6.92199 -15.031868,11.43538 -2.414934,2.61307 -4.73071,5.32791 -6.677152,8.31519 -0.306125,0.49793 -0.708802,1.0707 -0.808302,1.66572 -0.277849,1.66159 2.229541,2.90438 3.621498,3.77271 2.633922,1.34637 5.406297,2.42589 8.136953,3.55396 1.101903,0.33943 3.772461,1.48397 4.796592,0.24561 0.73783,-0.89218 0.07006,-2.15083 -0.148566,-2.9946 -0.185709,-0.71672 -0.360683,-1.43618 -0.541023,-2.15427 -1.413775,-5.51913 -2.579463,-11.10434 -4.237548,-16.55872 -0.900046,-2.84468 -0.396941,-2.0568 -3.720457,-5.13873 -0.11221,-0.10406 -0.325104,0.0199 -0.444206,0.11595 -0.428427,0.34563 -0.613014,1.66124 -0.843413,2.11414 -1.58093,4.81059 -3.075821,9.65059 -4.42102,14.53281 -2.373813,8.60061 -4.77537,17.23507 -6.041385,26.08221 -0.110368,1.05547 -0.25,2.10828 -0.33111,3.1664 -0.242642,3.16539 -0.02728,6.35793 0.364937,9.50194 0.117319,0.87304 0.221578,1.72623 0.216043,2.60825 -0.0011,0.17571 -0.0026,0.35167 -0.01564,0.52689 -0.0081,0.10838 -0.121478,0.24252 -0.0479,0.32251 0.897093,0.97522 1.914959,1.832 2.872441,2.748 -0.681906,-0.5344 -0.867458,-2.37984 -1.131044,-3.19203 -0.495022,-2.85974 -0.852413,-5.74991 -0.08473,-8.6083 0.489257,-1.60133 0.607907,-2.23407 1.371804,-3.74215 1.259075,-2.48565 3.140226,-4.58472 5.264234,-6.36127 1.145318,-0.72679 2.261106,-1.51132 3.66576,-1.60348 0.302802,-0.0199 0.610579,0.0113 0.907262,0.0751 0.27237,0.0585 0.938366,0.52059 0.78442,0.28841 -0.583395,-0.87989 -1.427191,-1.55607 -2.140786,-2.33411 0.181621,0.19035 0.400394,0.35116 0.544867,0.57104 0.315312,0.47988 0.521698,1.33107 0.649111,1.85527 0.342087,1.40741 0.490558,2.83625 0.494405,4.28546 -0.03791,3.78777 -0.368043,7.58303 -1.28062,11.26917 -1.04009,3.60991 -2.408775,7.12418 -4.543346,10.24381 -0.883234,1.36217 -1.767176,2.72422 -2.6861,4.06277 -0.563965,0.8215 -0.941959,1.29485 -1.435079,2.13849 -0.162176,0.27745 -0.297897,0.56955 -0.446844,0.85433 0.908254,1.14613 1.745898,2.35194 2.724761,3.43839 0.376558,0.41794 1.410944,0.0596 1.680374,-0.0221 2.290427,-0.69478 4.353364,-1.97029 6.327894,-3.28555 0.939475,-0.76038 1.939531,-1.45148 2.818429,-2.28113 5.05247,-4.76939 8.695137,-11.28834 11.461959,-17.58364 0.841777,-1.91529 1.530313,-3.89433 2.295469,-5.84149 0.650174,-2.04342 1.378469,-4.06362 1.950519,-6.13027 2.21918,-8.01723 3.409294,-16.48506 2.72211,-24.80732 -0.161911,-1.96083 -0.539448,-3.89786 -0.80917,-5.84679 -1.150334,-4.8375 -1.450919,-6.81489 -3.253149,-11.49159 -1.163895,-3.02025 -3.54148,-8.14587 -5.521381,-10.75801 -3.93592,-5.19276 -5.722294,-6.57619 -9.939769,-10.42111 -1.197618,-0.71572 -2.344224,-1.52469 -3.592851,-2.14715 -3.418443,-1.704168 -7.49241,-2.711947 -11.123657,-1.062672 -0.620474,0.281813 -1.169683,0.699621 -1.754526,1.049432 -0.457118,0.41899 -0.958662,0.79416 -1.371357,1.25698 -1.240282,1.39091 -1.948283,3.26338 -1.866484,5.12264 0.04843,1.20325 0.238662,2.39096 0.437835,3.57751 0.546949,3.62345 0.775134,7.28025 1.001247,10.93569 0.317571,5.22514 0.482253,10.45817 0.691792,15.68847 -0.008,0.4963 -0.0136,0.99265 -0.0241,1.48891 -0.0067,0.31615 0.01564,0.635 -0.02743,0.94828 -0.0054,0.0392 -0.135753,0.0168 -0.109305,0.0462 4.568307,5.0816 1.896327,2.04782 1.240915,0.62991 -2.110296,-3.96358 -4.326094,-7.87012 -6.582799,-11.75194 -1.876087,-3.14866 -3.730758,-6.31344 -5.732743,-9.38479 -0.311711,-0.47821 -2.523876,-3.77186 -3.04554,-4.34937 -1.279831,-1.41683 -2.682105,-2.71807 -4.023158,-4.07711 -0.352087,-0.0998 -0.697683,-0.37231 -1.056265,-0.29927 -0.596635,0.12154 -0.629803,1.86545 -0.635164,1.94011 -0.216322,3.01237 0.131263,6.03176 0.254585,9.03789 0.785077,11.53042 1.873909,23.05715 4.057377,34.41878 0.102238,0.49524 1.339747,7.0343 1.910091,8.0932 1.008705,1.87277 2.317083,3.57977 3.675615,5.21658 0.220846,0.26608 0.633207,0.46826 0.966619,0.37656 0.580517,-0.15967 1.012187,-2.3346 1.031033,-2.40021 0.950312,-4.05658 1.741144,-8.14779 2.065967,-12.30878 0.104111,-1.05887 0.227598,-2.11596 0.314804,-3.17635 0.02402,-0.29212 0.229701,-0.64907 0.04676,-0.87809 -0.866121,-1.08423 -1.98489,-1.94194 -3.029365,-2.85561 -0.139626,-0.12214 -0.110829,1.05498 -0.130527,0.541 -0.168449,2.78073 -0.0952,5.56449 0.347694,8.32092 0.321853,2.10278 0.385885,2.72251 0.846889,4.85836 0.910799,4.21979 2.202149,8.34857 3.58171,12.43491 1.194541,3.31583 1.164256,3.30099 2.42063,6.52302 1.030812,2.64357 2.172145,5.24909 3.109728,7.92839 0.220845,0.6311 0.408643,1.27327 0.612965,1.90991 0.303723,1.12285 0.441489,1.3737 0.519068,2.42123 0.02535,0.34241 0.05222,0.61819 -0.426591,0.35507 -0.305689,-0.16799 -1.039966,-0.91285 -0.835109,-0.63054 0.45249,0.62356 1.061915,1.11653 1.592873,1.67479 -4.73389,-4.89584 -8.81811,-10.39067 -12.525507,-16.09435 -4.349972,-6.82984 -8.832254,-13.62483 -12.291757,-20.96342 -1.174446,-2.78459 -1.764898,-3.98332 -2.647188,-6.85299 -1.288642,-4.19135 -1.895104,-8.55908 -2.282901,-12.91397 -0.199936,-2.56557 -0.356762,-4.08559 -0.402232,-6.66725 -0.07622,-4.32753 0.313251,-8.65599 0.953677,-12.93207 0.508428,-2.69638 0.659618,-3.84818 1.426003,-6.49635 1.105017,-3.81828 2.912641,-7.36494 4.803636,-10.844929 0.467264,-0.774006 0.907275,-1.565134 1.401791,-2.322023 2.369553,-3.626752 5.288331,-6.938978 8.818809,-9.467603 2.067991,-1.303875 4.120536,-2.522382 6.387573,-3.457332 0.83874,-0.345908 2.363661,-0.907341 3.318079,-1.022445 0.376999,-0.04547 0.758804,0.03168 1.138206,0.04751 -0.674399,-0.801415 -1.19111,-1.768081 -2.0232,-2.404245 -0.253857,-0.194083 0.132969,0.631465 0.12216,0.950833 -0.01648,0.487161 -0.127132,0.966668 -0.203356,1.448115 -0.352896,2.228985 -0.799488,4.442999 -1.130215,6.675757 -0.780375,5.477135 -1.440212,11.010382 -1.197941,16.552932 0.338611,4.95837 0.792462,10.00457 2.954068,14.55806 0.330994,0.48502 0.597373,1.02113 0.992981,1.45506 2.451412,2.68886 4.962438,5.2566 8.256175,6.84558 z" />
    <path
       style="fill:#000000;stroke-width:0.264583"
       id="path74"
       d="m 162.7811,218.54892 c -0.49803,-6.56622 -0.88472,-13.19187 0.006,-19.7474 0.29035,-2.13759 0.79246,-4.24103 1.18868,-6.36155 0.6387,-2.0875 1.12809,-4.22666 1.91608,-6.26251 2.10915,-5.44923 5.3346,-10.39578 9.37889,-14.59946 2.54655,-2.64691 3.3329,-3.02559 6.15159,-5.02156 1.61752,-0.51225 2.988,-1.45224 4.61877,-0.19694 0.26525,0.20418 -0.98927,-0.047 -0.96242,0.2867 0.12905,1.6034 1.05061,3.05179 1.35819,4.6307 0.94474,4.84973 0.64682,7.36701 0.59985,12.38312 -0.86989,10.81146 -3.99666,21.2491 -8.45968,31.10236 -2.9302,6.46915 -4.43615,8.76274 -7.91335,14.8055 -1.28419,1.90619 -2.48354,3.87237 -3.85259,5.71857 -3.28741,4.43317 -7.32441,8.66285 -12.35452,11.10837 -0.62202,0.30241 -1.28826,0.50382 -1.93239,0.75572 -0.86756,0.15937 -1.58741,0.45587 -2.44503,0.10739 -0.23981,-0.0974 -0.79837,-0.65927 -0.59913,-0.49403 0.85436,0.70862 1.51756,1.75541 2.56451,2.12413 0.36298,0.12784 0.23152,-0.74896 0.45913,-1.05925 0.59116,-0.80588 1.31578,-1.50479 1.97366,-2.25718 4.57967,-4.69231 8.79142,-9.72313 12.33033,-15.25152 2.35303,-3.67583 2.9255,-4.94682 4.92903,-8.74367 1.72425,-3.41071 3.24613,-6.92487 4.43104,-10.56034 0.19958,-0.61235 1.16351,-3.86624 1.28041,-4.70739 0.0768,-0.55286 0.007,-1.11633 0.01,-1.6745 -1.01127,-2.74323 -3.24571,-5.02922 -6.24401,-5.23159 -1.33334,-0.09 -2.92607,0.15889 -4.19282,0.5372 -0.76213,0.22762 -1.48534,0.56954 -2.22801,0.8543 -2.15754,1.1148 -4.20786,2.5235 -5.76802,4.41455 -1.44645,1.75322 -2.26631,3.67872 -3.06217,5.7679 -0.0952,0.51186 -0.26123,1.0155 -0.2857,1.53556 -0.11755,2.49793 2.59933,4.371 4.39634,5.40809 0.55339,0.31936 2.31403,-1.00349 2.53941,-1.14799 0.44107,-0.49509 0.93193,-0.94996 1.32319,-1.48528 1.24257,-1.70009 1.94628,-3.41821 2.81837,-5.35409 0.56939,-1.26395 1.10635,-2.54227 1.66305,-3.81187 2.1895,-4.9933 1.24974,-2.93131 3.56375,-7.74963 1.0253,-1.8776 1.95767,-3.87673 3.38037,-5.51175 0.40193,-0.46191 0.84821,-0.92995 1.40639,-1.18166 0.33734,-0.15213 1.27492,0.37809 1.10914,0.0472 -0.37727,-0.75292 -1.08443,-1.8036 -1.9126,-1.65075 -0.66337,0.12243 0.54078,1.23602 0.81117,1.85404 1.45966,5.15879 0.92524,10.52615 0.47647,15.7847 -0.20341,2.46958 -0.34893,2.55557 3.02645,4.29139 0.24297,0.12494 0.23112,-0.49622 0.32025,-0.75449 0.35793,-1.03714 0.49366,-1.82322 0.7408,-2.92676 0.86894,-4.9012 1.2567,-9.86884 1.55524,-14.83206 0.1944,-2.66709 0.10523,-5.34089 -0.0224,-8.00814 -0.0789,-0.49384 0.0147,-2.44213 -0.31077,-2.78134 -1.02355,-1.06683 -2.14777,-2.0323 -3.22165,-3.04845 -0.25149,0.0613 -0.54939,0.026 -0.75446,0.184 -0.88404,0.68102 -2.70937,3.05934 -3.261,3.76261 -1.73357,2.21011 -3.40736,4.46659 -5.06479,6.73391 -0.79974,1.28148 -1.88629,2.45207 -2.43477,3.88521 -0.0738,0.19287 -0.32133,1.08284 -0.10612,1.3428 0.97491,1.17759 2.1157,2.20738 3.17355,3.31107 2.76888,1.15274 5.40275,0.55499 8.21798,-0.0473 3.27226,-0.61353 6.601,-1.43978 9.95929,-1.31959 2.42858,0.0869 3.88731,0.50386 6.25429,1.00501 2.80865,0.77146 5.52373,1.91891 7.87722,3.66209 0.69594,0.51548 1.32658,1.11451 1.96591,1.69874 0.33969,0.31041 -1.19836,-1.31752 -1.06635,-0.87671 0.23174,0.7738 0.93121,1.32011 1.39681,1.98016 1.76034,2.9493 2.48412,6.0093 2.17093,9.44471 -0.24422,2.67881 -0.6666,3.58096 -1.45213,6.19053 -0.56,1.20141 -1.06075,2.43226 -1.68,3.60424 -2.79774,5.29488 -6.57121,10.28685 -11.33179,13.97176 -1.19794,0.92725 -2.52328,1.67704 -3.78492,2.51556 -3.25674,1.80297 -6.69637,3.25749 -10.27991,4.26879 -0.98827,0.27889 -2.81504,0.72804 -3.94274,0.71529 -0.36017,-0.004 -0.70651,-0.14074 -1.05977,-0.21111 0.8501,0.70667 1.5105,1.7447 2.5503,2.12001 0.35387,0.12773 0.18148,-0.73734 0.35376,-1.0718 0.31188,-0.60544 0.71526,-1.15939 1.08889,-1.72881 1.68961,-2.57499 1.56064,-2.18832 3.30104,-4.98032 0.63799,-1.02349 1.23882,-2.06968 1.85824,-3.10451 1.70695,-3.22803 3.49557,-6.54157 4.15619,-10.18318 0.35881,-1.97787 0.34822,-4.67072 0.13489,-6.68126 -0.0945,-0.89063 -0.31279,-1.76375 -0.46919,-2.64563 -0.2466,-0.6904 -0.40561,-1.4187 -0.73982,-2.07123 -0.27684,-0.54052 -0.64308,-1.04389 -1.07456,-1.47125 -2.21927,-2.198 -3.65739,-4.33391 -6.7712,-4.16875 -0.38241,0.0203 -0.75164,0.14705 -1.12746,0.22058 0,0 2.6311,2.97634 2.6311,2.97634 v 0 c 1.00482,-0.14753 1.18417,-0.26792 2.22789,-0.009 0.45366,0.11273 1.363,0.94227 1.31878,0.47691 -0.0743,-0.78265 -1.0382,-1.19041 -1.45018,-1.85999 -0.68551,-1.11416 3.72257,4.50767 1.94784,3.40695 0.17054,0.87129 0.40471,1.73251 0.51162,2.61387 0.23392,1.92834 0.28109,4.69124 -0.0436,6.59179 -0.61806,3.61814 -2.39708,6.9066 -4.08425,10.10711 -0.61808,1.02905 -1.21673,2.07003 -1.85423,3.08716 -1.47806,2.35825 -1.8425,2.75571 -3.32433,4.96279 -0.39342,0.58597 -0.81234,1.15734 -1.15775,1.77283 -0.23153,0.41254 -0.79281,0.88509 -0.56724,1.30091 0.7328,1.35091 2.07747,2.26539 3.11621,3.39808 0.37766,0.0433 0.75305,0.14231 1.13296,0.12973 1.18185,-0.0391 2.91688,-0.4803 3.97684,-0.79168 3.59965,-1.05747 7.05858,-2.53841 10.33288,-4.36931 1.27433,-0.85182 2.61233,-1.61537 3.82301,-2.55546 4.79959,-3.72691 8.598,-8.74442 11.45208,-14.07239 0.63358,-1.18277 1.15317,-2.42316 1.72975,-3.63474 0.81899,-2.64092 1.24911,-3.54785 1.53497,-6.26206 0.36622,-3.47724 -0.27901,-6.60371 -2.01043,-9.63104 -0.45598,-0.67422 -0.83173,-1.41031 -1.36793,-2.02266 -1.41957,-1.62117 -4.27753,-4.73046 -6.45735,-6.28056 -2.39991,-1.70662 -5.14499,-2.81946 -7.97766,-3.56615 -2.47172,-0.49908 -3.80308,-0.87929 -6.3357,-0.94802 -3.38005,-0.0917 -6.72462,0.72914 -10.0201,1.34444 -2.59679,0.52954 -5.49837,1.20248 -7.9382,-0.22181 0.75396,0.80953 1.45386,1.67301 2.26187,2.42859 0.12496,0.11685 -0.16736,-0.31031 -0.17912,-0.481 -0.0155,-0.22466 0.0286,-0.45456 0.0999,-0.66814 0.47955,-1.43515 1.60368,-2.58483 2.35995,-3.85796 1.64379,-2.26967 3.30595,-4.52719 5.04401,-6.72623 0.39103,-0.49475 2.29705,-2.95189 3.08661,-3.52227 0.15161,-0.10953 0.37385,-0.0124 0.56078,-0.0187 -5.74444,-6.33513 -2.45624,-3.18985 -2.15883,-2.20706 0.22438,0.7415 0.12546,1.55507 0.21258,2.31296 0.14162,2.6631 0.26294,5.3333 0.0768,7.99809 -0.27796,4.94525 -0.65528,9.89402 -1.52151,14.77657 -0.32139,1.4398 -0.31916,1.59825 -0.71783,2.8642 -0.0682,0.21672 -0.36461,0.4583 -0.23029,0.64156 5.35568,7.30677 2.71516,3.64819 2.71561,2.38177 1.5e-4,-0.42498 0.0524,-0.84836 0.0785,-1.27254 0.42692,-5.3037 0.99043,-10.69951 -0.36137,-15.92556 -1.09234,-3.04553 -0.75514,-3.03189 -4.58658,-5.66104 -0.35731,-0.24519 -0.90655,-0.0538 -1.29202,0.14425 -2.10088,1.07914 -3.79222,4.9957 -4.85965,6.85008 -2.35985,4.91482 -1.33373,2.67626 -3.57363,7.75909 -0.55709,1.26416 -1.09576,2.53652 -1.66684,3.79441 -0.83223,1.83312 -1.58059,3.615 -2.7686,5.24382 -0.36864,0.50542 -0.8342,0.93248 -1.2513,1.39872 -0.40101,0.2443 -0.76595,0.56131 -1.20305,0.73289 -1.71072,0.67153 -2.23689,-1.19517 0.84597,2.51071 0.22258,0.26756 -0.4898,-0.51473 -0.62795,-0.83417 -0.44395,-1.02653 -0.18096,-1.58859 -0.0152,-2.66738 0.75169,-2.04835 1.53102,-3.93827 2.9387,-5.6547 1.52022,-1.85364 3.52863,-3.22417 5.64606,-4.29751 2.12334,-0.78598 3.92275,-1.50317 6.25619,-1.22821 0.557,0.0656 1.61393,0.99658 1.62514,0.43584 0.0169,-0.84785 -0.97394,-1.40435 -1.59424,-1.9826 -0.32702,-0.30485 0.46455,0.76401 0.69683,1.14601 0.0217,0.53596 0.12668,1.07502 0.0652,1.60789 -0.092,0.79779 -1.0558,4.13678 -1.2337,4.69621 -1.15475,3.63138 -2.65456,7.14095 -4.36279,10.54495 -1.98513,3.78796 -2.54972,5.0558 -4.88989,8.71974 -3.52408,5.51753 -7.72986,10.53328 -12.33584,15.17648 -0.69394,0.76878 -1.45174,1.48439 -2.08182,2.30633 -0.28771,0.37533 -0.85463,0.83272 -0.65205,1.26005 0.79645,1.68002 2.51484,4.21995 4.76365,3.9973 0.5041,-0.0499 0.98976,-0.21626 1.48464,-0.32439 0.65311,-0.26846 1.3286,-0.4879 1.95934,-0.80537 5.0503,-2.5419 9.10032,-6.80739 12.41,-11.30691 1.36803,-1.85984 2.56679,-3.83842 3.85018,-5.75764 3.39774,-5.92418 5.06699,-8.52665 7.94131,-14.84883 4.50218,-9.90275 7.63702,-20.31703 8.58774,-31.17971 0.0836,-5.11594 0.38951,-7.48975 -0.49442,-12.43949 -0.28493,-1.59555 -0.46673,-3.2847 -1.26615,-4.69462 -1.34224,-2.36727 -3.41782,-6.4851 -6.90731,-6.16547 -0.90565,0.083 -1.71917,0.59394 -2.57875,0.89091 -2.82713,2.03631 -3.63348,2.44041 -6.1894,5.11677 -4.06317,4.25462 -7.32164,9.24721 -9.46319,14.73763 -0.79788,2.04557 -1.29742,4.19531 -1.94613,6.29296 -0.40788,2.12781 -0.92071,4.23817 -1.22362,6.38344 -0.92388,6.54308 -0.5736,13.15589 -0.14971,19.71926 z" />
  </g>
</svg>
